<?xml version="1.0" standalone="no"?>
<!DOCTYPE svg PUBLIC "-//W3C//DTD SVG 20010904//EN"
 "http://www.w3.org/TR/2001/REC-SVG-20010904/DTD/svg10.dtd">
<svg version="1.0" xmlns="http://www.w3.org/2000/svg"
 width="100.000000pt" height="100.000000pt" viewBox="0 0 335.000000 269.000000"
 preserveAspectRatio="xMidYMid meet">

<g transform="translate(0.000000,269.000000) scale(0.100000,-0.100000)"
fill="#000000" stroke="none">
<path d="M1154 2225 c-40 -17 -60 -63 -46 -104 10 -27 6 -40 -36 -116 -26 -47
-53 -85 -60 -85 -18 0 -72 -61 -72 -82 0 -9 -5 -20 -11 -24 -7 -4 -9 -21 -6
-42 4 -21 1 -45 -8 -63 -8 -15 -15 -35 -15 -43 0 -24 29 -46 61 -46 23 0 34 8
50 35 12 19 26 35 32 34 7 0 36 -29 66 -65 61 -72 91 -81 146 -44 17 11 33 20
36 20 3 0 9 -52 13 -115 l6 -116 -85 -133 c-47 -73 -85 -138 -85 -143 0 -5 13
-21 28 -36 l28 -27 465 0 466 0 20 23 c11 12 23 27 27 34 4 7 -31 72 -80 149
l-86 137 7 113 c4 63 10 114 13 114 4 0 21 -9 37 -20 59 -39 84 -29 167 69 43
50 60 49 85 -4 18 -37 47 -51 82 -40 30 9 35 44 13 95 -11 27 -17 58 -15 76 3
18 0 35 -6 38 -6 4 -11 16 -11 27 0 11 -7 22 -15 25 -8 4 -15 11 -15 18 0 13
-74 76 -89 76 -12 0 -103 189 -96 200 3 5 -4 25 -16 44 -21 37 -62 50 -72 24
-6 -18 13 -70 34 -93 10 -11 36 -60 58 -108 40 -88 41 -89 24 -118 -15 -25
-15 -33 -5 -50 7 -11 10 -28 7 -39 -3 -10 1 -37 9 -61 17 -48 13 -56 -57 -143
l-23 -28 -53 26 c-35 18 -51 32 -47 41 3 8 6 62 7 121 1 81 -2 108 -12 115
-18 12 -700 11 -718 0 -11 -7 -14 -35 -12 -129 l2 -120 -44 -26 c-24 -14 -46
-26 -50 -26 -3 0 -27 28 -53 62 -46 60 -46 63 -34 97 7 20 13 49 12 65 0 17 4
36 10 43 6 7 7 24 4 37 -4 16 4 48 23 91 22 53 35 71 58 80 56 24 80 88 49
130 -14 19 -15 18 -33 -13 -28 -49 -69 -36 -42 14 17 33 2 46 -37 29z m456
-475 c29 -29 26 -81 -6 -119 -29 -35 -66 -40 -102 -15 -32 22 -31 96 3 129 30
31 77 33 105 5z m185 -2 c15 -14 28 -38 32 -60 4 -30 1 -41 -20 -62 -53 -53
-127 -15 -127 65 0 75 60 104 115 57z"/>
<path d="M1568 1701 c-12 -4 -15 -10 -8 -21 7 -11 12 -12 21 -3 16 16 8 32
-13 24z"/>
<path d="M1720 1688 c0 -11 5 -18 13 -16 18 7 20 35 2 35 -8 0 -15 -9 -15 -19z"/>
<path d="M1500 833 c-20 -8 -30 -23 -30 -47 0 -10 -8 -25 -17 -32 -17 -13 -17
-15 0 -28 14 -11 17 -29 17 -95 0 -73 2 -82 18 -79 14 3 17 16 20 86 2 64 6
82 17 82 8 0 15 9 15 20 0 11 -7 20 -15 20 -20 0 -19 27 2 38 10 6 14 16 10
26 -7 17 -12 18 -37 9z"/>
<path d="M1060 810 c0 -15 5 -20 18 -18 9 2 17 10 17 18 0 8 -8 16 -17 18 -13
2 -18 -3 -18 -18z"/>
<path d="M1570 810 c0 -13 7 -20 20 -20 13 0 20 7 20 20 0 13 -7 20 -20 20
-13 0 -20 -7 -20 -20z"/>
<path d="M1060 641 c0 -111 -1 -120 -22 -133 -24 -16 -17 -38 11 -38 35 0 45
29 49 136 5 115 -1 154 -23 154 -12 0 -15 -21 -15 -119z"/>
<path d="M1163 752 c-6 -4 -16 -19 -22 -33 -14 -37 7 -63 64 -79 49 -14 68
-36 44 -51 -24 -15 -58 -10 -71 11 -17 26 -48 26 -48 1 0 -48 110 -71 150 -31
42 42 17 89 -55 106 -43 10 -58 23 -44 40 16 20 46 17 66 -6 10 -11 23 -20 30
-20 21 0 15 38 -9 54 -23 17 -84 21 -105 8z"/>
<path d="M1570 656 c0 -100 1 -106 20 -106 20 0 21 5 18 102 -3 89 -5 103 -20
106 -16 3 -18 -7 -18 -102z"/>
<path d="M1640 755 c0 -4 14 -27 31 -51 l31 -45 -31 -48 c-36 -56 -37 -61 -12
-61 11 0 29 15 42 37 l22 36 24 -29 c12 -16 23 -32 23 -36 0 -5 11 -8 25 -8
14 0 25 3 25 6 0 4 -16 28 -35 54 l-35 47 30 39 c16 21 30 45 30 52 0 25 -36
11 -58 -24 l-23 -35 -22 33 c-20 28 -67 52 -67 33z"/>
<path d="M1866 734 c-22 -22 -26 -36 -26 -81 0 -70 29 -103 90 -103 30 0 47 6
65 25 14 13 25 29 25 35 0 17 -29 11 -50 -10 -24 -24 -53 -26 -74 -4 -34 33
-20 44 54 44 l70 0 0 34 c0 78 -97 116 -154 60z m96 -21 c31 -28 22 -43 -26
-43 -52 0 -65 13 -40 41 21 23 42 24 66 2z"/>
<path d="M2064 747 c-3 -8 -4 -54 -2 -103 3 -75 6 -89 21 -92 15 -3 17 5 17
58 0 70 11 97 46 110 13 5 24 16 24 25 0 20 -34 19 -54 -1 -15 -14 -16 -14
-16 0 0 19 -29 21 -36 3z"/>
<path d="M2197 753 c-4 -3 -7 -51 -7 -105 0 -91 1 -98 20 -98 18 0 20 7 20 69
0 71 14 101 46 101 8 0 14 9 14 20 0 22 -28 28 -47 9 -8 -8 -13 -8 -17 0 -8
12 -20 14 -29 4z"/>
<path d="M1325 670 c-12 -19 6 -30 51 -30 37 0 44 3 44 20 0 17 -7 20 -44 20
-25 0 -48 -4 -51 -10z"/>
</g>
</svg>
